<?xml version="1.0" standalone="no"?>
<!DOCTYPE svg PUBLIC "-//W3C//DTD SVG 20010904//EN"
 "http://www.w3.org/TR/2001/REC-SVG-20010904/DTD/svg10.dtd">
<svg version="1.0" xmlns="http://www.w3.org/2000/svg"
 width="425.000000pt" height="425.000000pt" viewBox="0 0 425.000000 425.000000"
 preserveAspectRatio="xMidYMid meet">
<metadata>
Created by potrace 1.11, written by Peter Selinger 2001-2013
</metadata>
<g transform="translate(0.000000,425.000000) scale(0.100000,-0.100000)"
fill="#000000" stroke="none">
<path d="M1173 3372 c-51 -37 -236 -170 -413 -295 l-320 -229 39 -29 c38 -27
67 -50 95 -74 6 -5 38 -32 71 -60 153 -127 433 -405 574 -570 51 -61 104 -122
117 -137 58 -68 225 -296 309 -423 150 -229 256 -420 371 -672 18 -40 34 -73
36 -73 3 0 2 1945 -1 1962 -2 16 -161 -158 -162 -177 0 -11 -1 -125 -1 -253
l0 -233 -98 98 c-248 249 -484 436 -738 586 l-90 54 233 233 233 233 698 2
698 3 69 -72 c37 -39 125 -130 195 -201 70 -72 142 -147 161 -167 l34 -37 -27
-10 c-24 -10 -185 -113 -292 -188 -127 -89 -289 -228 -452 -388 -73 -71 -136
-131 -140 -133 -4 -1 -6 109 -5 245 l1 247 -84 85 -84 85 0 -990 c0 -930 1
-987 17 -954 43 91 192 389 210 420 97 170 323 513 363 550 3 3 24 30 46 60
226 304 673 757 927 940 26 18 47 36 47 40 0 3 -12 13 -27 22 -16 9 -37 24
-48 33 -11 9 -144 104 -295 211 -151 107 -284 202 -295 210 -11 8 -51 37 -89
64 l-69 49 -861 0 -861 0 -92 -67z"/>
</g>
</svg>
